PathFileType	4	(X/Y/Z)	 New Session 104.trc
DataRate	CameraRate	NumFrames	NumMarkers	Units	OrigDataRate	OrigDataStartFrame	OrigNumFrames
100	100	22	14	m	100	248	660
Frame#	Time	C7			T8			IJ			PX			AA			AC			AI			TS			SC			GH			LE			ME			US			RS			
		X1	Y1	Z1	X2	Y2	Z2	X3	Y3	Z3	X4	Y4	Z4	X5	Y5	Z5	X6	Y6	Z6	X7	Y7	Z7	X8	Y8	Z8	X9	Y9	Z9	X10	Y10	Z10	X11	Y11	Z11	X12	Y12	Z12	X13	Y13	Z13	X14	Y14	Z14	
248	2.4800	0.019656	0.101823	0.155584	0.024794	-0.111830	0.224216	-0.008659	-0.000233	-0.009260	-0.009788	-0.145006	-0.076000	0.215282	0.000823	0.119855	0.163015	0.048064	0.054240	0.104990	0.025727	0.186815	0.107294	-0.092848	0.217561	0.016506	0.007747	-0.005543	0.225113	0.016346	0.081388	0.308402	-0.256060	0.010612	0.233128	-0.284687	-0.038547	0.394472	-0.501705	-0.096573	0.454401	-0.454650	-0.112801	
249	2.4900	0.019088	0.101957	0.155243	0.024507	-0.111684	0.224021	-0.009002	-0.000320	-0.009537	-0.010014	-0.145131	-0.076131	0.214602	0.001567	0.120068	0.162387	0.048797	0.054366	0.104410	0.026061	0.186727	0.106997	-0.092643	0.217358	0.016094	0.007773	-0.005882	0.224496	0.017385	0.081750	0.312096	-0.253120	0.010703	0.237581	-0.282644	-0.039147	0.402747	-0.496782	-0.097055	0.461897	-0.448687	-0.112886	
250	2.5000	0.018542	0.102099	0.154893	0.024213	-0.111540	0.223828	-0.009360	-0.000390	-0.009817	-0.010260	-0.145245	-0.076255	0.213904	0.002396	0.120302	0.161682	0.049568	0.054494	0.103812	0.026409	0.186620	0.106687	-0.092407	0.217145	0.015697	0.007827	-0.006204	0.223857	0.018540	0.082172	0.315903	-0.249899	0.010756	0.242197	-0.280383	-0.039813	0.411267	-0.491501	-0.097472	0.469618	-0.442339	-0.112852	
251	2.5100	0.018002	0.102255	0.154529	0.023930	-0.111399	0.223641	-0.009748	-0.000453	-0.010107	-0.010541	-0.145364	-0.076384	0.213196	0.003299	0.120547	0.160931	0.050378	0.054629	0.103211	0.026774	0.186513	0.106365	-0.092143	0.216918	0.015342	0.007863	-0.006509	0.223214	0.019800	0.082671	0.319743	-0.246405	0.010744	0.246954	-0.277894	-0.040541	0.419990	-0.485852	-0.097842	0.477539	-0.435602	-0.112696	
252	2.5200	0.017434	0.102428	0.154165	0.023666	-0.111260	0.223464	-0.010180	-0.000519	-0.010395	-0.010842	-0.145500	-0.076528	0.212472	0.004249	0.120796	0.160156	0.051217	0.054785	0.102594	0.027153	0.186424	0.106041	-0.091866	0.216667	0.014998	0.007848	-0.006814	0.222551	0.021124	0.083195	0.323609	-0.242661	0.010695	0.251812	-0.275194	-0.041293	0.428882	-0.479824	-0.098171	0.485633	-0.428474	-0.112418	
253	2.5300	0.016821	0.102599	0.153818	0.023422	-0.111127	0.223296	-0.010653	-0.000581	-0.010668	-0.011133	-0.145662	-0.076680	0.211722	0.005220	0.121054	0.159352	0.052087	0.054969	0.101926	0.027533	0.186362	0.105729	-0.091600	0.216393	0.014610	0.007794	-0.007141	0.221817	0.022468	0.083679	0.327527	-0.238700	0.010651	0.256778	-0.272299	-0.042033	0.437922	-0.473403	-0.098445	0.493868	-0.420949	-0.112030	
254	2.5400	0.016163	0.102741	0.153489	0.023184	-0.111002	0.223135	-0.011143	-0.000630	-0.010938	-0.011410	-0.145852	-0.076828	0.210932	0.006202	0.121330	0.158497	0.053013	0.055188	0.101195	0.027901	0.186336	0.105430	-0.091355	0.216104	0.014163	0.007738	-0.007487	0.220976	0.023825	0.084115	0.331522	-0.234545	0.010640	0.261926	-0.269202	-0.042718	0.447092	-0.466578	-0.098645	0.502208	-0.413024	-0.111547	
255	2.5500	0.015471	0.102842	0.153171	0.022937	-0.110887	0.222974	-0.011621	-0.000663	-0.011236	-0.011677	-0.146042	-0.076978	0.210098	0.007207	0.121631	0.157588	0.054017	0.055449	0.100428	0.028252	0.186354	0.105124	-0.091128	0.215808	0.013681	0.007700	-0.007821	0.220041	0.025215	0.084553	0.335585	-0.230182	0.010677	0.267267	-0.265892	-0.043328	0.456379	-0.459343	-0.098752	0.510615	-0.404691	-0.110987	
256	2.5600	0.014764	0.102914	0.152846	0.022669	-0.110780	0.222810	-0.012085	-0.000695	-0.011574	-0.011938	-0.146191	-0.077146	0.209227	0.008258	0.121951	0.156632	0.055088	0.055748	0.099655	0.028598	0.186399	0.104790	-0.090900	0.215504	0.013185	0.007678	-0.008098	0.219049	0.026671	0.085038	0.339688	-0.225585	0.010762	0.272706	-0.262355	-0.043934	0.465765	-0.451696	-0.098758	0.519053	-0.395947	-0.110364	
257	2.5700	0.014046	0.102984	0.152507	0.022379	-0.110678	0.222639	-0.012535	-0.000730	-0.011934	-0.012190	-0.146282	-0.077338	0.208326	0.009366	0.122276	0.155644	0.056205	0.056058	0.098867	0.028954	0.186439	0.104424	-0.090655	0.215187	0.012667	0.007671	-0.008311	0.218037	0.028215	0.085576	0.343802	-0.220739	0.010884	0.278130	-0.258561	-0.044636	0.475232	-0.443641	-0.098659	0.527494	-0.386788	-0.109684	
258	2.5800	0.013294	0.103078	0.152162	0.022068	-0.110575	0.222461	-0.012964	-0.000766	-0.012291	-0.012433	-0.146348	-0.077536	0.207395	0.010530	0.122599	0.154635	0.057354	0.056356	0.098063	0.029338	0.186440	0.104043	-0.090386	0.214857	0.012099	0.007692	-0.008516	0.217006	0.029844	0.086151	0.347912	-0.215650	0.011036	0.283507	-0.254487	-0.045469	0.484758	-0.435177	-0.098455	0.535914	-0.377211	-0.108951	
259	2.5900	0.012487	0.103198	0.151823	0.021736	-0.110468	0.222275	-0.013393	-0.000802	-0.012625	-0.012680	-0.146432	-0.077718	0.206437	0.011737	0.122929	0.153607	0.058526	0.056649	0.097254	0.029754	0.186399	0.103670	-0.090094	0.214527	0.011474	0.007743	-0.008769	0.215948	0.031532	0.086749	0.352023	-0.210337	0.011221	0.288808	-0.250159	-0.046423	0.494324	-0.426304	-0.098142	0.544295	-0.367218	-0.108169	
260	2.6000	0.011633	0.103339	0.151507	0.021384	-0.110350	0.222079	-0.013857	-0.000836	-0.012943	-0.012941	-0.146545	-0.077878	0.205467	0.012977	0.123279	0.152553	0.059719	0.056956	0.096441	0.030192	0.186348	0.103314	-0.089787	0.214212	0.010861	0.007809	-0.009089	0.214871	0.033255	0.087359	0.356130	-0.204820	0.011447	0.294062	-0.245611	-0.047334	0.503909	-0.417022	-0.097718	0.552613	-0.356812	-0.107349	
261	2.6100	0.010744	0.103502	0.151227	0.021021	-0.110222	0.221875	-0.014368	-0.000873	-0.013269	-0.013214	-0.146656	-0.078018	0.204496	0.014247	0.123651	0.151470	0.060930	0.057287	0.095604	0.030639	0.186328	0.102965	-0.089476	0.213907	0.010362	0.007883	-0.009446	0.213769	0.034999	0.087976	0.360212	-0.199109	0.011718	0.299314	-0.240858	-0.048009	0.513489	-0.407332	-0.097184	0.560842	-0.345999	-0.106498	
262	2.6200	0.009829	0.103683	0.150975	0.020662	-0.110087	0.221669	-0.014890	-0.000912	-0.013613	-0.013490	-0.146729	-0.078156	0.203525	0.015550	0.124035	0.150358	0.062161	0.057633	0.094734	0.031084	0.186365	0.102609	-0.089167	0.213597	0.009964	0.007967	-0.009783	0.212613	0.036758	0.088602	0.364248	-0.193197	0.012032	0.304600	-0.235921	-0.048395	0.523039	-0.397238	-0.096551	0.568955	-0.334785	-0.105623	
263	2.6300	0.008892	0.103873	0.150719	0.020318	-0.109946	0.221468	-0.015362	-0.000943	-0.013957	-0.013762	-0.146761	-0.078318	0.202537	0.016882	0.124426	0.149211	0.063403	0.057988	0.093839	0.031531	0.186442	0.102233	-0.088854	0.213272	0.009560	0.008056	-0.010067	0.211391	0.038527	0.089229	0.368240	-0.187075	0.012384	0.309920	-0.230822	-0.048612	0.532531	-0.386743	-0.095842	0.576927	-0.323179	-0.104733	
264	2.6400	0.007929	0.104052	0.150432	0.019985	-0.109803	0.221269	-0.015781	-0.000954	-0.014276	-0.014031	-0.146771	-0.078517	0.201516	0.018232	0.124823	0.148025	0.064648	0.058348	0.092933	0.031987	0.186514	0.101832	-0.088525	0.212939	0.009050	0.008157	-0.010326	0.210112	0.040298	0.089848	0.372202	-0.180747	0.012770	0.315274	-0.225580	-0.048776	0.541940	-0.375851	-0.095085	0.584741	-0.311190	-0.103837	
265	2.6500	0.006945	0.104212	0.150123	0.019640	-0.109656	0.221064	-0.016218	-0.000939	-0.014564	-0.014299	-0.146782	-0.078744	0.200476	0.019582	0.125219	0.146809	0.065884	0.058710	0.092028	0.032461	0.186558	0.101409	-0.088170	0.212620	0.008413	0.008276	-0.010601	0.208798	0.042064	0.090458	0.376128	-0.174220	0.013182	0.320660	-0.220183	-0.048896	0.551243	-0.364561	-0.094296	0.592381	-0.298823	-0.102952	
266	2.6600	0.005954	0.104352	0.149816	0.019257	-0.109507	0.220848	-0.016755	-0.000909	-0.014843	-0.014560	-0.146812	-0.078979	0.199440	0.020923	0.125611	0.145582	0.067088	0.059066	0.091122	0.032945	0.186584	0.100969	-0.087793	0.212332	0.007741	0.008404	-0.010907	0.207476	0.043827	0.091060	0.379995	-0.167480	0.013603	0.326058	-0.214603	-0.048919	0.560421	-0.352872	-0.093479	0.599831	-0.286082	-0.102098	
267	2.6700	0.004976	0.104475	0.149519	0.018823	-0.109361	0.220627	-0.017384	-0.000882	-0.015131	-0.014793	-0.146870	-0.079198	0.198419	0.022257	0.126007	0.144353	0.068243	0.059415	0.090201	0.033416	0.186615	0.100515	-0.087407	0.212076	0.007156	0.008521	-0.011237	0.206155	0.045594	0.091654	0.383786	-0.160493	0.014018	0.331413	-0.208821	-0.048797	0.569453	-0.340782	-0.092628	0.607069	-0.272967	-0.101290	
268	2.6800	0.004023	0.104578	0.149226	0.018343	-0.109226	0.220414	-0.018004	-0.000868	-0.015423	-0.014986	-0.146946	-0.079392	0.197403	0.023585	0.126411	0.143121	0.069349	0.059759	0.089264	0.033853	0.186668	0.100048	-0.087029	0.211844	0.006684	0.008618	-0.011559	0.204830	0.047365	0.092247	0.387496	-0.153229	0.014426	0.336649	-0.202824	-0.048536	0.578314	-0.328293	-0.091738	0.614072	-0.259479	-0.100532	
269	2.6900	0.003097	0.104661	0.148928	0.017835	-0.109107	0.220219	-0.018515	-0.000864	-0.015712	-0.015147	-0.147017	-0.079560	0.196387	0.024916	0.126817	0.141882	0.070429	0.060098	0.088329	0.034257	0.186737	0.099571	-0.086674	0.211624	0.006251	0.008708	-0.011854	0.203478	0.049138	0.092841	0.391117	-0.145689	0.014852	0.341756	-0.196621	-0.048186	0.586975	-0.315411	-0.090818	0.620812	-0.245626	-0.099814	
